<?xml version="1.0" encoding="utf-8"?>
<!-- Generator: Adobe Illustrator 25.2.0, SVG Export Plug-In . SVG Version: 6.00 Build 0)  -->
<svg version="1.1" id="Layer_1" xmlns="http://www.w3.org/2000/svg" xmlns:xlink="http://www.w3.org/1999/xlink" x="0px" y="0px"
	 viewBox="0 0 200.6 42.5" enable-background="new 0 0 200.6 42.5" xml:space="preserve">
<g>
	<path fill="#000" d="M50.4,3.6c0.6-0.1,1-0.4,1-1c0-0.7-0.4-1.1-1.4-1.1h-1.5v3.9h0.6V3.6h0.6l1.1,1.7h0.6L50.4,3.6z M49.8,3.1
		h-0.6V1.9h0.8c0.4,0,0.8,0.1,0.8,0.6C50.8,3.1,50.3,3.1,49.8,3.1"/>
	<path fill="#000" d="M49.8,0.1c-1.8,0-3.3,1.4-3.3,3.3c0,1.9,1.5,3.3,3.3,3.3c1.8,0,3.3-1.4,3.3-3.3C53.1,1.5,51.6,0.1,49.8,0.1
		 M49.8,6.2c-1.5,0-2.7-1.2-2.7-2.8c0-1.6,1.2-2.8,2.7-2.8c1.5,0,2.7,1.2,2.7,2.8C52.5,5,51.4,6.2,49.8,6.2"/>
	<path fill="#000" d="M40.5,9.4c-1.7,0-3.3,0.4-4.8,1.2c-0.3,0.2-0.7,0.4-1,0.6c-0.6,0.4-1.2,0.8-1.8,1.3
		c-4.8,3.8-5.6,9.9-8.1,14.9c-0.1,0.3-0.3,0.5-0.4,0.8c-0.4,0.7-0.8,1.3-1.2,1.8c-0.4,0.5-0.9,1-1.4,1.5c-0.6,0.5-1.2,1-1.8,1.4
		c-0.7,0.4-1.3,0.8-2,1.2C13.8,35.7,6,36.1,2.2,36.2c-1.2,0-2.2,1-2.2,2v2.2c0,0-0.1,2.1,2.1,2.1c1.9,0,12.1,0,14.7,0h0.1h0.3h0.2
		c8.5,0,25.1-2.9,25.2-21.3v0v-10C42.5,11.2,42.6,9.4,40.5,9.4"/>
	<path fill="#000" d="M2,33.1c1.7,0,3.3-0.4,4.8-1.2c0.3-0.2,0.7-0.4,1-0.6C8.4,31,9,30.5,9.6,30.1c4.8-3.8,5.6-9.9,8.1-14.9
		c0.1-0.3,0.3-0.5,0.4-0.8c0.4-0.7,0.8-1.3,1.2-1.8c0.4-0.5,0.9-1,1.4-1.5c0.6-0.5,1.2-1,1.8-1.4c0.7-0.4,1.3-0.8,2-1.2
		c4.1-1.8,11.9-2.1,15.8-2.2c1.2,0,2.2-1,2.2-2V2.1c0,0,0.1-2.1-2.1-2.1H25.8h-0.1h-0.3h-0.2C16.7,0,0.1,2.9,0,21.3v0v10
		C0,31.3-0.1,33.1,2,33.1"/>
	<path fill="#000" d="M70,11.5C70,11.5,70,11.5,70,11.5c-0.9-2.6-2.6-4.2-5.2-5c0,0,0,0,0,0c-0.2-0.1-0.4-0.1-0.7-0.2H64
		c0,0,0,0-0.1,0c-0.2,0-0.4-0.1-0.6-0.1l-0.2,0c-0.3,0-0.5,0-0.7,0h-0.1c-0.2,0-0.5,0-0.8,0l-0.1,0c-0.2,0-0.4,0.1-0.6,0.1
		c0,0,0,0-0.1,0h-0.1c-0.2,0.1-0.4,0.1-0.7,0.2c0,0,0,0-0.1,0c-2.6,0.8-4.3,2.4-5.2,5c0-0.1,0,0,0,0.1c-0.3,0.8-0.4,1.6-0.4,2.4
		v20.7c0,0.5,0.2,1,0.6,1.4c0.4,0.4,0.9,0.6,1.4,0.6c0.5,0,1-0.2,1.4-0.6c0.4-0.4,0.6-0.8,0.6-1.4V22.2h8.3v12.4
		c0,0.5,0.2,1,0.6,1.4c0.4,0.4,0.8,0.6,1.4,0.6c0.6,0,1-0.2,1.4-0.6c0.4-0.4,0.6-0.8,0.6-1.4V13.9C70.4,13.1,70.3,12.3,70,11.5
		L70,11.5z M66.5,18.4h-8.3v-4.4c0-0.5,0.1-1,0.3-1.5c0,0,0-0.1,0,0c0.1-0.3,0.3-0.7,0.6-1c0,0,0,0,0,0c0,0,0,0,0,0
		c0.1-0.1,0.3-0.3,0.4-0.4c0.1-0.1,0.1-0.1,0.1-0.1c0.1-0.1,0.2-0.1,0.3-0.2c0.1-0.1,0.2-0.1,0.3-0.2c0.1,0,0.2-0.1,0.3-0.1
		c0.1,0,0.2-0.1,0.3-0.1l0.2-0.1c0.2-0.1,0.3-0.1,0.5-0.1c0,0,0.1,0,0.2,0c0.2,0,0.4,0,0.5,0h0.2c0.2,0,0.3,0,0.5,0
		c0.1,0,0.1,0,0.2,0c0.2,0,0.3,0.1,0.5,0.1c0,0,0.1,0,0.2,0.1c0.1,0,0.2,0.1,0.3,0.1c0.1,0.1,0.2,0.1,0.3,0.1
		c0.1,0.1,0.2,0.1,0.3,0.2c0.1,0.1,0.2,0.1,0.3,0.2c0,0,0.1,0.1,0.1,0.1c0.2,0.1,0.3,0.3,0.4,0.4c0,0.1,0.1,0.1,0,0.1
		c0.2,0.3,0.4,0.6,0.6,1l0,0c0.2,0.5,0.3,1,0.3,1.5V18.4z"/>
	<path fill="#000" d="M90,32.7h-9.5V8.4c0-0.5-0.2-1-0.6-1.4c-0.4-0.4-0.9-0.6-1.4-0.6c-0.6,0-1,0.2-1.4,0.6
		c-0.4,0.4-0.6,0.8-0.6,1.4v26.2c0,0.5,0.2,1,0.6,1.4c0.4,0.4,0.9,0.6,1.4,0.6H90c0.6,0,1-0.2,1.4-0.6c0.4-0.4,0.6-0.8,0.6-1.4
		c0-0.5-0.2-1-0.6-1.4C91,32.9,90.5,32.7,90,32.7"/>
	<path fill="#000" d="M104.4,18.8c-1.1,0-2.1-0.4-2.9-1.2c-0.8-0.8-1.2-1.7-1.2-2.8v-0.6c0-1.1,0.4-2.1,1.2-2.9
		c0.8-0.8,1.8-1.2,2.9-1.2h0.1c0.9,0,1.7,0.3,2.4,0.8c0.7,0.5,1.2,1.2,1.5,2c0.3,0.9,0.9,1.3,1.9,1.3h0c0.7,0,1.2-0.3,1.6-0.8
		c0.4-0.5,0.5-1.1,0.3-1.8c-0.6-1.6-1.5-2.9-2.9-3.9c-1.4-1-3-1.5-4.8-1.5h-0.1c-2.3,0-4.2,0.8-5.8,2.3c-1.6,1.6-2.4,3.5-2.4,5.7
		v0.6c0,2.2,0.8,4.1,2.4,5.6c1.6,1.5,3.5,2.3,5.8,2.4c1.6,0,2.9,0.7,3.9,1.9c1,1.3,1.3,2.7,0.9,4.3c-0.3,1.1-0.9,1.9-1.8,2.6
		c-0.9,0.7-1.9,1-3.1,1h-0.1c-1.1,0-2.1-0.3-3-1c-0.9-0.7-1.5-1.5-1.8-2.5c-0.3-0.9-0.9-1.4-1.9-1.4c-0.7,0-1.2,0.3-1.6,0.8
		c-0.4,0.5-0.5,1.1-0.3,1.8c0.6,1.8,1.6,3.3,3.2,4.5c1.6,1.2,3.4,1.8,5.4,1.8h0c2.2,0,4.1-0.7,5.8-2c1.7-1.3,2.8-3,3.2-5.1
		c0.6-2.8,0-5.3-1.8-7.5C109.6,19.9,107.2,18.8,104.4,18.8"/>
	<path fill="#000" d="M134.5,11.5C134.5,11.5,134.5,11.5,134.5,11.5c-0.9-2.6-2.6-4.2-5.2-5c0,0,0,0,0,0
		c-0.2-0.1-0.4-0.1-0.7-0.2h-0.1c0,0-0.1,0-0.1,0c-0.2,0-0.4-0.1-0.6-0.1l-0.2,0c-0.3,0-0.5,0-0.7,0h-0.1c-0.2,0-0.5,0-0.8,0l-0.1,0
		c-0.2,0-0.4,0.1-0.6,0.1c0,0,0,0-0.1,0H125c-0.2,0.1-0.4,0.1-0.7,0.2c0,0,0,0-0.1,0c-2.6,0.8-4.3,2.4-5.2,5c0-0.1,0,0,0,0.1
		c-0.3,0.8-0.4,1.6-0.4,2.4v20.7c0,0.5,0.2,1,0.6,1.4c0.4,0.4,0.9,0.6,1.4,0.6c0.5,0,1-0.2,1.4-0.6c0.4-0.4,0.6-0.8,0.6-1.4V22.2
		h8.3v12.4c0,0.5,0.2,1,0.6,1.4c0.4,0.4,0.8,0.6,1.4,0.6c0.6,0,1-0.2,1.4-0.6c0.4-0.4,0.6-0.8,0.6-1.4V13.9
		C134.9,13.1,134.7,12.3,134.5,11.5L134.5,11.5z M130.9,18.4h-8.3v-4.4c0-0.5,0.1-1,0.3-1.5c0,0,0-0.1,0,0c0.1-0.3,0.3-0.7,0.6-1
		c0,0,0,0,0,0c0,0,0,0,0,0c0.1-0.1,0.3-0.3,0.4-0.4c0.1-0.1,0.1-0.1,0.1-0.1c0.1-0.1,0.2-0.1,0.3-0.2c0.1-0.1,0.2-0.1,0.3-0.2
		c0.1,0,0.2-0.1,0.3-0.1c0.1,0,0.2-0.1,0.3-0.1l0.2-0.1c0.2-0.1,0.3-0.1,0.5-0.1c0,0,0.1,0,0.2,0c0.2,0,0.4,0,0.5,0h0.2
		c0.2,0,0.3,0,0.5,0c0.1,0,0.1,0,0.2,0c0.2,0,0.3,0.1,0.5,0.1c0,0,0.1,0,0.2,0.1c0.1,0,0.2,0.1,0.3,0.1c0.1,0.1,0.2,0.1,0.3,0.1
		c0.1,0.1,0.2,0.1,0.3,0.2c0.1,0.1,0.2,0.1,0.3,0.2c0,0,0.1,0.1,0.1,0.1c0.2,0.1,0.3,0.3,0.4,0.4c0,0.1,0.1,0.1,0,0.1
		c0.2,0.3,0.4,0.6,0.6,1l0,0c0.2,0.5,0.3,1,0.3,1.5V18.4z"/>
	<path fill="#000" d="M156.6,6.1c-0.6,0-1,0.2-1.4,0.6c-0.4,0.4-0.6,0.8-0.6,1.4v18.3l-9.9-19.2c0,0,0,0,0,0c0,0,0,0,0,0
		c0-0.1-0.1-0.2-0.1-0.2v0c-0.4-0.5-0.9-0.7-1.6-0.7c-0.6,0-1,0.2-1.4,0.6c-0.4,0.4-0.6,0.8-0.6,1.4v26.5c0,0.5,0.2,1,0.6,1.4
		c0.4,0.4,0.9,0.6,1.4,0.6c0.5,0,1-0.2,1.4-0.6c0.4-0.4,0.6-0.8,0.6-1.4V16.3l9.9,19.2c0.3,0.5,0.6,0.8,1.2,1c0.5,0.2,1,0.1,1.5-0.1
		c0.6-0.3,0.9-0.7,1-1.3v0c0-0.1,0-0.1,0-0.2c0-0.1,0-0.2,0-0.2V8.1c0-0.5-0.2-1-0.6-1.4C157.6,6.3,157.1,6.1,156.6,6.1"/>
	<path fill="#000" d="M166.6,6.1c-0.6,0-1,0.2-1.4,0.6c-0.4,0.4-0.6,0.8-0.6,1.4v26.5c0,0.5,0.2,1,0.6,1.4
		c0.4,0.4,0.9,0.6,1.4,0.6c0.5,0,1-0.2,1.4-0.6c0.4-0.4,0.6-0.8,0.6-1.4V8.1c0-0.5-0.2-1-0.6-1.4C167.6,6.3,167.2,6.1,166.6,6.1"/>
	<path fill="#000" d="M183.1,6.2h-6.5c-0.6,0-1,0.2-1.4,0.6c-0.4,0.4-0.6,0.8-0.6,1.4v26.5c0,0.5,0.2,1,0.6,1.4
		c0.4,0.4,0.9,0.6,1.4,0.6h6.5c2.2,0,4.1-0.8,5.7-2.3c1.6-1.5,2.4-3.4,2.4-5.5V14c0-2.1-0.8-4-2.4-5.5C187.3,7,185.4,6.2,183.1,6.2
		 M187.2,28.7c0,1.1-0.4,2-1.2,2.8c-0.8,0.8-1.7,1.2-2.9,1.2h-4.5V10.1h4.5c1.1,0,2.1,0.4,2.9,1.2c0.8,0.8,1.2,1.7,1.2,2.8V28.7z"/>
	<path fill="#000" d="M200,6.7c-0.4-0.4-0.9-0.6-1.4-0.6c-0.6,0-1,0.2-1.4,0.6c-0.4,0.4-0.6,0.8-0.6,1.4v26.5
		c0,0.5,0.2,1,0.6,1.4c0.4,0.4,0.9,0.6,1.4,0.6c0.5,0,1-0.2,1.4-0.6c0.4-0.4,0.6-0.8,0.6-1.4V8.1C200.6,7.5,200.4,7.1,200,6.7"/>
</g>
</svg>
